<svg id="Laag_1" data-name="Laag 1" xmlns="http://www.w3.org/2000/svg" viewBox="0 0 15.05 18.48"><defs><style>.cls-1{fill:#fff;}</style></defs><path class="cls-1" d="M8,6.31c-.73,0-1.86-.83-3-.8A4.5,4.5,0,0,0,1.15,7.83c-1.63,2.83-.42,7,1.17,9.31.78,1.12,1.7,2.38,2.92,2.34s1.61-.76,3-.76,1.81.76,3.05.73,2.06-1.14,2.83-2.27a10.05,10.05,0,0,0,1.28-2.63A4.08,4.08,0,0,1,13,10.81,4.15,4.15,0,0,1,15,7.3a4.33,4.33,0,0,0-3.38-1.83C10,5.35,8.74,6.31,8,6.31ZM10.62,4a4,4,0,0,0,1-2.95A4.16,4.16,0,0,0,8.86,2.4a3.87,3.87,0,0,0-1,2.86A3.45,3.45,0,0,0,10.62,4" transform="translate(-0.38 -1)"/></svg>