<?xml version="1.0" encoding="utf-8"?>
<!-- Generator: Adobe Illustrator 25.0.1, SVG Export Plug-In . SVG Version: 6.00 Build 0)  -->
<svg version="1.1" id="Laag_1" xmlns="http://www.w3.org/2000/svg" xmlns:xlink="http://www.w3.org/1999/xlink" x="0px" y="0px"
	 viewBox="0 0 18 20.2" style="enable-background:new 0 0 18 20.2;" xml:space="preserve">
<style type="text/css">
	.st0{fill:none;}
	.st1{fill:#FFFFFF;}
</style>
<g>
	<rect y="-11.3" class="st0" width="18" height="88"/>
	<path class="st1" d="M17.5,18.1l-4.8-4.8c2.5-3,2.2-7.4-0.8-10S4.5,1.2,2,4.1s-2.2,7.4,0.8,10c2.6,2.3,6.5,2.3,9.2,0l4.8,4.8
		c0.2,0.2,0.6,0.2,0.8,0C17.7,18.7,17.8,18.4,17.5,18.1C17.5,18.1,17.5,18.1,17.5,18.1L17.5,18.1z M1.4,8.7c0-3.3,2.7-5.9,6-5.9
		s5.9,2.7,5.9,6c0,3.3-2.7,5.9-5.9,5.9C4.1,14.7,1.4,12,1.4,8.7z"/>
</g>
</svg>
